<svg width="100" height="100" viewBox="0 0 24 24" fill="none" xmlns="http://www.w3.org/2000/svg">
  <!-- Database/Data container -->
  <rect x="3" y="8" width="14" height="10" rx="2" stroke="#4F46E5" stroke-width="1.5" fill="none"/>

  <!-- Data rows -->
  <line x1="5" y1="11" x2="15" y2="11" stroke="#6B7280" stroke-width="1"/>
  <line x1="5" y1="13.5" x2="13" y2="13.5" stroke="#6B7280" stroke-width="1"/>
  <line x1="5" y1="16" x2="11" y2="16" stroke="#6B7280" stroke-width="1"/>

  <!-- Plus icon for "create/add" -->
  <circle cx="18.5" cy="5.5" r="3" fill="#10B981" stroke="white" stroke-width="1"/>
  <line x1="18.5" y1="3.5" x2="18.5" y2="7.5" stroke="white" stroke-width="1.5" stroke-linecap="round"/>
  <line x1="16.5" y1="5.5" x2="20.5" y2="5.5" stroke="white" stroke-width="1.5" stroke-linecap="round"/>

  <!-- Customization gear/settings icon -->
  <g transform="translate(12, 15)">
    <circle cx="2" cy="2" r="1" fill="#6B7280"/>
    <path d="M2.8 1.2L2.2 0.8L1.8 1.2L1.2 0.8L0.8 1.2L1.2 1.8L0.8 2.2L1.2 2.8L1.8 2.2L2.2 2.8L2.8 2.2L2.8 1.8L2.8 1.2Z" fill="#6B7280" stroke="none"/>
  </g>
</svg>
